<svg xmlns="http://www.w3.org/2000/svg" viewBox="0 0 60.39 59.71"><defs><style>.cls-1{fill:#fcfcfd;}</style></defs><g id="Layer_2" data-name="Layer 2"><g id="Layer_1-2" data-name="Layer 1"><path class="cls-1" d="M34.94,59.71v-21h6.84l1.29-8.44H34.51c.32-3.06,0-6.08,1.06-8.52,1.3-3.05,4.85-1.83,7.78-2.31,0-2,.08-4-.06-5.94A1.82,1.82,0,0,0,42,12.3a43.09,43.09,0,0,0-8.5,0c-4.73.77-7.69,4.89-7.9,10.32-.09,2.38,0,4.77,0,7.49H18.16v8.5h7.32V59.53C16,59.49,1.43,49,.11,32.85A30.14,30.14,0,0,1,26.25.21C46.64-2,59.12,13.57,60.26,27,61.93,46.82,46.3,58.79,34.94,59.71Z"/></g></g></svg>