<svg xmlns="http://www.w3.org/2000/svg" viewBox="0 0 59.84 60.11"><defs><style>.cls-1{fill:#fd869c;}</style></defs><g id="Layer_2" data-name="Layer 2"><g id="Layer_1-2" data-name="Layer 1"><path class="cls-1" d="M59.81,30.06c0,3.88.07,7.77,0,11.66-.24,11.21-5.34,17.35-16.44,18.05a220.88,220.88,0,0,1-29-.33C6.06,58.87.66,53.16.31,44.8c-.42-10-.42-20,0-30A15.09,15.09,0,0,1,15.27.25C25.09-.09,35-.09,44.77.3c8.37.33,14.41,6.87,14.87,15.5.26,4.74,0,9.5,0,14.25ZM5,29.92H4.4c.27,5.17.24,10.38.89,15.5.68,5.34,4.2,8.9,9.46,9.12,9.56.39,19.17.6,28.71.11,7.66-.4,11-4.13,11.27-11.87.33-8.8.29-17.62,0-26.41-.26-7-4.32-11-11.4-11.27-8.88-.28-17.79-.28-26.67,0C9.5,5.33,5.81,8.79,5.09,15.94,4.62,20.56,5,25.26,5,29.92Z"/><path class="cls-1" d="M30,14.68A15,15,0,0,1,45.17,30,15.34,15.34,0,0,1,29.71,45.46c-8.51-.06-15.13-7-15.06-15.76S21.19,14.63,30,14.68Zm-.2,4.91A10.38,10.38,0,1,0,40.23,29.94,10.45,10.45,0,0,0,29.8,19.59Z"/><path class="cls-1" d="M49.27,13.7A3.07,3.07,0,0,1,46,16.92a3,3,0,0,1-3.08-3.17,3,3,0,0,1,3.29-3.17A3,3,0,0,1,49.27,13.7Z"/></g></g></svg>