<svg xmlns="http://www.w3.org/2000/svg" viewBox="0 0 59.78 59.59"><defs><style>.cls-1{fill:#01a4eb;}</style></defs><g id="Layer_2" data-name="Layer 2"><g id="Layer_1-2" data-name="Layer 1"><path class="cls-1" d="M30.14,0Q42.22,0,54.28,0c3.83,0,5.46,1.53,5.47,5.38q.06,24.38,0,48.75c0,3.91-1.53,5.42-5.38,5.43q-24.52,0-49,0C1.49,59.56,0,58,0,54.1Q0,29.85,0,5.6C0,1.48,1.55,0,5.75,0Zm2.33,50.87c0-1.88,0-3.56,0-5.23.12-4,.06-8.12.5-12.14.3-2.74,2.18-3.92,4.83-3.85s4,1.24,4.23,4.11c.32,3.7.25,7.43.36,11.15C42.6,52.1,40.9,51,49,51.08c.17,0,.4.06.5,0,.54-.48,1.52-1,1.52-1.5,0-6.5,0-13-.49-19.51-.25-3.38-1.87-6.44-5.6-7.43-4-1.06-7.89-1-11.21,2-.45.41-.94.78-1.56,1.3l-.4-3.16c-1.95,0-3.88.08-5.8,0s-2.35.6-2.33,2.35c.08,5.59,0,11.17,0,16.76v9.06ZM9.22,36.8v8.12c0,6.31,0,6.25,6.36,6.21,1.92,0,2.68-.52,2.65-2.59-.12-6.42-.05-12.85-.05-19.28,0-6.81,0-6.74-6.72-6.58-1.85.05-2.3.78-2.26,2.44C9.27,29,9.22,32.91,9.22,36.8ZM13.66,8.61a5,5,0,0,0-5,5,5.09,5.09,0,0,0,5.06,5.19,5.16,5.16,0,0,0,5-5A5.05,5.05,0,0,0,13.66,8.61Z"/></g></g></svg>