<svg xmlns="http://www.w3.org/2000/svg" viewBox="0 0 70.96 59.74"><defs><style>.cls-1{fill:#1b9ef0;}</style></defs><g id="Layer_2" data-name="Layer 2"><g id="Layer_1-2" data-name="Layer 1"><path class="cls-1" d="M.16,53.1a30.33,30.33,0,0,0,20.23-6.19C13.88,45.86,9.31,43,7,36.8l4.66-.51C5.84,32.91,1.8,28.68,1.52,21.47L7,23c-5.55-5.84-7.21-12.13-3.46-20,8.28,9.41,18.23,14.77,30.77,15.62,0-1.24,0-2.21,0-3.18.1-6.33,2.93-11.13,8.62-13.83s11-1.81,16,1.89a5,5,0,0,0,3.6.75A54.56,54.56,0,0,0,69.06,2l.56.5L64.46,9.38l6-1.57L71,8.3A42.37,42.37,0,0,1,66.58,13c-1.75,1.4-2.2,2.93-2.33,5.11-2.06,34.81-35.47,50-62,37.07A26.13,26.13,0,0,1,0,53.79Z"/></g></g></svg>