<svg xmlns="http://www.w3.org/2000/svg" viewBox="0 0 60.35 42.11"><defs><style>.cls-1{fill:#fb0101;}</style></defs><g id="Layer_2" data-name="Layer 2"><g id="Layer_1-2" data-name="Layer 1"><path class="cls-1" d="M1.05,6.87C2.43,1.76,6.46.83,10.93.59L22.66,0C28.84.05,35,0,41.22.19,45,.3,48.8.58,52.56,1a7,7,0,0,1,6.51,6,79.8,79.8,0,0,1,0,28.54c-.67,3.56-3.27,5.75-7.29,5.88-11.59.35-23.18.51-34.78.64a72.65,72.65,0,0,1-7.78-.55C3.77,41,1.46,38.87.78,33.36A96.33,96.33,0,0,1,1.05,6.87ZM24,30.26l15.82-9.07L24,12.23Z"/></g></g></svg>